PathFileType  4	(X/Y/Z) C:\Users\wagnerel85475\Documents\Thesis\opencap-core\Data\3375ffbc-daeb-4a43-b4f7-ac9899cd4c71\MarkerData\PreAugmentation
DataRate	CameraRate	NumFrames	NumMarkers	Units	OrigDataRate	OrigDataStartFrame	OrigNumFrames
60.0	60.0	11	20	m	60.0	673	897
Frame#	Time	Neck			RShoulder			RElbow			RWrist			LShoulder			LElbow			LWrist			midHip			RHip			RKnee			RAnkle			LHip			LKnee			LAnkle			LBigToe			LSmallToe			LHeel			RBigToe			RSmallToe			RHeel			
		X1	Y1	Z1	X2	Y2	Z2	X3	Y3	Z3	X4	Y4	Z4	X5	Y5	Z5	X6	Y6	Z6	X7	Y7	Z7	X8	Y8	Z8	X9	Y9	Z9	X10	Y10	Z10	X11	Y11	Z11	X12	Y12	Z12	X13	Y13	Z13	X14	Y14	Z14	X15	Y15	Z15	X16	Y16	Z16	X17	Y17	Z17	X18	Y18	Z18	X19	Y19	Z19	X20	Y20	Z20	

673	11.2000000	0.5904200	1.3628400	-0.1088300	0.5716500	1.3708400	0.0656300	0.8771100	1.2318400	0.1064800	1.1631200	1.2680600	0.0119400	0.5918800	1.3606200	-0.2866900	0.9520600	1.2271400	-0.3032200	1.2165900	1.2643200	-0.1702700	0.7031600	0.8360700	-0.0977700	0.7170000	0.8413600	0.0159800	0.6470100	0.3410800	0.0272500	0.5878500	-0.1870300	0.0955000	0.7061400	0.8310400	-0.2171500	0.6329800	0.3347000	-0.2242500	0.6039700	-0.1895300	-0.2878800	0.8256100	-0.2280600	-0.3430500	0.7878600	-0.2312200	-0.3752600	0.5321000	-0.2498500	-0.2848800	0.7531300	-0.2365700	0.2146600	0.7296600	-0.2318100	0.2270900	0.5773800	-0.2287600	0.0688900
674	11.2166667	0.5897200	1.3622700	-0.1085900	0.5705000	1.3684000	0.0651100	0.8714900	1.2322400	0.1041600	1.1636200	1.2638800	0.0150500	0.5915300	1.3602400	-0.2869100	0.9467000	1.2279000	-0.3052400	1.2167900	1.2646200	-0.1699900	0.7091100	0.8371400	-0.0962700	0.7226300	0.8424500	0.0179600	0.6464200	0.3444600	0.0266300	0.5828500	-0.1925900	0.0988700	0.7070300	0.8338700	-0.2128800	0.6383600	0.3349200	-0.2272900	0.6090900	-0.1895600	-0.2854200	0.8208700	-0.2317900	-0.3451500	0.7836300	-0.2309600	-0.3768800	0.5328100	-0.2490600	-0.2845300	0.7474100	-0.2403300	0.2183100	0.7246400	-0.2353400	0.2302600	0.5774700	-0.2291800	0.0689200
675	11.2333333	0.5905100	1.3645900	-0.1088500	0.5714700	1.3691600	0.0655700	0.8941800	1.2270400	0.1163600	1.1546200	1.2700300	0.0124100	0.5918400	1.3606000	-0.2867000	0.9427700	1.2319000	-0.3033800	1.2166500	1.2643700	-0.1702400	0.7083400	0.8370600	-0.0954300	0.7223900	0.8442400	0.0180700	0.6470300	0.3409500	0.0272200	0.5870800	-0.1926400	0.0966200	0.7113300	0.8339100	-0.2148000	0.6329100	0.3265100	-0.2237400	0.6089000	-0.1857700	-0.2853300	0.8212500	-0.2316800	-0.3448500	0.7784900	-0.2324600	-0.3794000	0.5429500	-0.2403300	-0.2793000	0.7577000	-0.2363200	0.2124100	0.7294900	-0.2335400	0.2274400	0.5775200	-0.2302300	0.0692100
676	11.2500000	0.5897000	1.3622600	-0.1086300	0.5705100	1.3684600	0.0650800	0.8778100	1.2308200	0.1103600	1.1521600	1.2702700	0.0219500	0.5966500	1.3582800	-0.2892000	0.9421300	1.2294600	-0.3031400	1.2124100	1.2613200	-0.1720300	0.7090200	0.8352700	-0.0961800	0.7224800	0.8447800	0.0180600	0.6399500	0.3394300	0.0252800	0.5877600	-0.1908000	0.0962700	0.7121500	0.8326400	-0.2151100	0.6327400	0.3235800	-0.2242100	0.6092700	-0.1874700	-0.2858000	0.8255100	-0.2301000	-0.3429900	0.7887300	-0.2290700	-0.3789300	0.5381300	-0.2453200	-0.2819400	0.7612900	-0.2350700	0.2104600	0.7338600	-0.2318600	0.2249900	0.5775000	-0.2293400	0.0688900
677	11.2666667	0.5954200	1.3609700	-0.1113100	0.5714800	1.3690700	0.0655900	0.8825100	1.2315300	0.1083100	1.1476100	1.2721100	0.0170200	0.5968800	1.3568200	-0.2890200	0.9429400	1.2323100	-0.3034300	1.2123000	1.2626600	-0.1723300	0.7133000	0.8334500	-0.0977900	0.7224800	0.8400500	0.0180800	0.6470200	0.3411400	0.0272100	0.5872200	-0.1907700	0.0962300	0.7165000	0.8303000	-0.2170900	0.6382100	0.3257600	-0.2257900	0.6089000	-0.1857800	-0.2853400	0.8256700	-0.2280500	-0.3430600	0.7883100	-0.2288800	-0.3792100	0.5430900	-0.2384000	-0.2789500	0.7577400	-0.2363200	0.2124200	0.7295000	-0.2335300	0.2274500	0.5773500	-0.2288800	0.0688900
678	11.2833333	0.5949900	1.3579500	-0.1109900	0.5707900	1.3660300	0.0651800	0.9076100	1.2337600	0.1126600	1.1554900	1.2777000	0.0195600	0.5915600	1.3559700	-0.2868900	0.9464900	1.2309000	-0.3052600	1.2084600	1.2646800	-0.1740500	0.7138300	0.8339000	-0.0984700	0.7224300	0.8387700	0.0181700	0.6512800	0.3456300	0.0241400	0.5877900	-0.1908100	0.0962900	0.7174200	0.8271200	-0.2173200	0.6379300	0.3289900	-0.2265300	0.6088500	-0.1874800	-0.2850500	0.8252900	-0.2282300	-0.3433700	0.7886900	-0.2290400	-0.3789400	0.5382800	-0.2414300	-0.2812000	0.7566200	-0.2368300	0.2130700	0.7292300	-0.2336100	0.2276100	0.5774700	-0.2292000	0.0689000
679	11.3000000	0.5956700	1.3584600	-0.1112800	0.5717900	1.3666700	0.0656400	0.9026700	1.2340200	0.1113500	1.1511900	1.2772900	0.0147500	0.5970300	1.3586500	-0.2889900	0.9429200	1.2304000	-0.3078400	1.2082500	1.2645700	-0.1743500	0.7133000	0.8334300	-0.0977900	0.7222700	0.8405400	0.0183000	0.6522400	0.3490300	0.0294200	0.5875000	-0.1889100	0.0958600	0.7164800	0.8302600	-0.2170700	0.6381900	0.3277200	-0.2260500	0.6089900	-0.1898300	-0.2853000	0.8209600	-0.2297200	-0.3452500	0.7835600	-0.2305200	-0.3814500	0.5429500	-0.2422200	-0.2796500	0.7632200	-0.2343600	0.2140300	0.7351100	-0.2315100	0.2290400	0.5774400	-0.2303300	0.0682300
680	11.3166667	0.5951000	1.3579400	-0.1110100	0.5760600	1.3635600	0.0626000	0.9075900	1.2352800	0.1127200	1.1646700	1.2794800	0.0231900	0.5918200	1.3578400	-0.2868800	0.9463400	1.2326200	-0.3052700	1.2086500	1.2686500	-0.1740400	0.7084000	0.8333300	-0.1006000	0.7168700	0.8381900	0.0161700	0.6560300	0.3517700	0.0266500	0.5880200	-0.1889200	0.0958900	0.7173800	0.8308500	-0.2175600	0.6382100	0.3329400	-0.2270300	0.6088700	-0.1874300	-0.2850400	0.8206000	-0.2298500	-0.3455500	0.7839500	-0.2306400	-0.3811600	0.5492500	-0.2356900	-0.2763900	0.7567100	-0.2367900	0.2130800	0.7348700	-0.2315600	0.2292000	0.5775200	-0.2307000	0.0682300
681	11.3333333	0.5957600	1.3584400	-0.1112900	0.5828700	1.3621600	0.0650500	0.8948000	1.2295800	0.1162700	1.1756400	1.2781200	0.0093900	0.5970600	1.3586200	-0.2890000	0.9474400	1.2330700	-0.3056700	1.2120500	1.2703100	-0.1763200	0.7079000	0.8291600	-0.0996800	0.7167800	0.8339400	0.0164500	0.6526600	0.3466300	0.0291300	0.5874700	-0.1889100	0.0958600	0.7217600	0.8247200	-0.2193000	0.6382400	0.3254200	-0.2262800	0.6089000	-0.1857400	-0.2853300	0.8209600	-0.2296900	-0.3452500	0.7835600	-0.2304800	-0.3814400	0.5430500	-0.2402900	-0.2792800	0.7631900	-0.2343600	0.2140300	0.7351100	-0.2315100	0.2290400	0.5774100	-0.2303300	0.0682300
682	11.3500000	0.6001900	1.3621700	-0.1135100	0.5757700	1.3660200	0.0625200	0.8914200	1.2307700	0.1028300	1.1875300	1.2751900	0.0054000	0.5913400	1.3584700	-0.2915800	0.9511000	1.2345900	-0.3030300	1.2160500	1.2702800	-0.1740800	0.7137700	0.8320900	-0.0984200	0.7168000	0.8364100	0.0162500	0.6561200	0.3475100	0.0266400	0.5883600	-0.1869500	0.0955000	0.7174200	0.8294100	-0.2172700	0.6380800	0.3248100	-0.2265400	0.6088800	-0.1874400	-0.2850400	0.8208400	-0.2317600	-0.3451400	0.7836200	-0.2309400	-0.3768800	0.5381600	-0.2433500	-0.2815900	0.7705600	-0.2315200	0.2052400	0.7395100	-0.2297900	0.2265500	0.5777900	-0.2279600	0.0675200
683	11.3666667	0.6006900	1.3651500	-0.1138300	0.5765200	1.3714900	0.0629500	0.8488700	1.2135600	0.1256600	1.1684100	1.2709600	0.0138900	0.6022300	1.3609900	-0.2913400	0.9568300	1.2316900	-0.3012200	1.2203000	1.2737700	-0.1722800	0.7028100	0.8345900	-0.0973900	0.7110900	0.8376100	0.0144600	0.6519100	0.3466900	0.0247600	0.5878500	-0.1869800	0.0954800	0.7113400	0.8296000	-0.2147500	0.6331000	0.3200800	-0.2284700	0.6087900	-0.1877800	-0.2849600	0.8211400	-0.2336400	-0.3451900	0.7930200	-0.2293500	-0.3773100	0.5376500	-0.2422000	-0.2815300	0.7678000	-0.2325800	0.2114100	0.7397400	-0.2298100	0.2264100	0.5775200	-0.2289700	0.0679000
